<!-- Generated by IcoMoon.io -->
<svg version="1.1" xmlns="http://www.w3.org/2000/svg" width="32" height="32" viewBox="0 0 32 32">
<title>cart</title>
<path d="M4.199 4.544c-0.136-0.010-0.323-0.011-0.66-0.011h-2.206c-0.663 0-1.2-0.537-1.2-1.2s0.537-1.2 1.2-1.2h2.206c0.012 0 0.023 0 0.035 0 0.288-0 0.567-0 0.805 0.018 0.262 0.020 0.559 0.066 0.865 0.202 0.434 0.194 0.805 0.506 1.071 0.9 0.186 0.277 0.283 0.562 0.347 0.817 0.058 0.231 0.106 0.506 0.155 0.79 0.002 0.012 0.004 0.023 0.006 0.035l0.336 1.934 17.457 0.517c0.684 0.020 1.266 0.037 1.745 0.090 0.503 0.055 0.992 0.159 1.457 0.407 0.713 0.38 1.289 0.973 1.647 1.696 0.234 0.473 0.323 0.964 0.363 1.468 0.039 0.48 0.039 1.063 0.039 1.747v0.090c0 0.643 0 1.193-0.035 1.647-0.037 0.48-0.119 0.946-0.333 1.4-0.329 0.698-0.859 1.282-1.522 1.677-0.431 0.256-0.888 0.383-1.362 0.466-0.449 0.079-0.996 0.132-1.636 0.194l-12.971 1.255c-0.656 0.063-1.216 0.118-1.682 0.126-0.491 0.009-0.974-0.030-1.455-0.207-0.729-0.268-1.36-0.749-1.812-1.381-0.298-0.417-0.463-0.872-0.585-1.348-0.116-0.452-0.212-1.006-0.325-1.655l-1.689-9.713c-0.058-0.332-0.090-0.516-0.124-0.648-0.010-0.041-0.018-0.067-0.023-0.081-0.008-0.010-0.018-0.018-0.029-0.024-0.015-0.002-0.041-0.006-0.083-0.009zM7.579 9.243l0.925 5.321c0.123 0.706 0.204 1.166 0.293 1.515 0.086 0.334 0.157 0.47 0.213 0.548 0.171 0.24 0.411 0.422 0.687 0.524 0.090 0.033 0.24 0.066 0.585 0.060 0.36-0.006 0.825-0.050 1.538-0.119l12.882-1.247c0.696-0.067 1.149-0.112 1.495-0.173 0.331-0.058 0.47-0.117 0.551-0.165 0.252-0.15 0.453-0.371 0.577-0.636 0.040-0.085 0.085-0.229 0.112-0.564 0.027-0.35 0.028-0.806 0.028-1.505 0-0.742-0.001-1.229-0.031-1.601-0.029-0.358-0.079-0.508-0.122-0.595-0.136-0.274-0.354-0.499-0.625-0.643-0.086-0.046-0.234-0.1-0.591-0.139-0.371-0.041-0.857-0.056-1.599-0.078l-16.92-0.501z"></path>
<path d="M11.333 23.867c-0.81 0-1.467 0.657-1.467 1.467s0.657 1.467 1.467 1.467c0.81 0 1.467-0.657 1.467-1.467s-0.657-1.467-1.467-1.467zM7.467 25.333c0-2.136 1.731-3.867 3.867-3.867s3.867 1.731 3.867 3.867c0 2.135-1.731 3.867-3.867 3.867s-3.867-1.731-3.867-3.867z"></path>
<path d="M24 23.867c-0.81 0-1.467 0.657-1.467 1.467s0.657 1.467 1.467 1.467c0.81 0 1.467-0.657 1.467-1.467s-0.657-1.467-1.467-1.467zM20.133 25.333c0-2.136 1.731-3.867 3.867-3.867s3.867 1.731 3.867 3.867c0 2.135-1.731 3.867-3.867 3.867s-3.867-1.731-3.867-3.867z"></path>
</svg>
