<!-- Generated by IcoMoon.io -->
<svg version="1.1" xmlns="http://www.w3.org/2000/svg" width="37" height="32" viewBox="0 0 37 32">
<title>favorite</title>
<path d="M18.285 27.463c-7.070-4.014-11.025-8.015-12.94-11.503-1.955-3.561-1.794-6.582-0.694-8.739 2.252-4.419 8.661-5.833 12.559-0.903l1.076 1.361 1.076-1.36c3.898-4.93 10.308-3.516 12.56 0.903 1.099 2.157 1.261 5.178-0.695 8.739-1.915 3.488-5.871 7.489-12.941 11.503zM18.285 3.421c-5.302-5.164-13.2-3.093-16.079 2.555-1.567 3.075-1.596 7.061 0.734 11.305 2.311 4.21 6.931 8.671 14.681 12.955l0.663 0.367 0.663-0.367c7.751-4.284 12.37-8.745 14.682-12.955 2.33-4.244 2.301-8.23 0.734-11.305-2.879-5.648-10.777-7.719-16.079-2.555z"></path>
</svg>
