<!-- Generated by IcoMoon.io -->
<svg version="1.1" xmlns="http://www.w3.org/2000/svg" width="32" height="32" viewBox="0 0 32 32">
<title>mail</title>
<path d="M31.613 0.387c-0.18-0.179-0.407-0.303-0.655-0.357s-0.506-0.037-0.745 0.051l-29.333 10.667c-0.253 0.096-0.471 0.267-0.624 0.489s-0.236 0.487-0.236 0.757c0 0.271 0.082 0.535 0.236 0.757s0.372 0.393 0.624 0.489l11.453 4.573 8.453-8.48 1.88 1.88-8.493 8.493 4.587 11.453c0.099 0.248 0.27 0.461 0.491 0.611s0.482 0.23 0.749 0.229c0.27-0.006 0.531-0.092 0.75-0.25s0.385-0.377 0.477-0.63l10.667-29.333c0.091-0.236 0.113-0.493 0.063-0.741s-0.169-0.477-0.343-0.659z"></path>
</svg>
