<!-- Generated by IcoMoon.io -->
<svg version="1.1" xmlns="http://www.w3.org/2000/svg" width="32" height="32" viewBox="0 0 32 32">
<title>phone</title>
<path d="M22.861 22.134l-1.031 1.547c-0.206 0.309-0.478 0.572-0.837 0.667-1.175 0.31-4.294 0.451-9.043-4.298s-4.609-7.868-4.298-9.043c0.095-0.359 0.358-0.631 0.667-0.837l1.546-1.031c1.151-0.768 1.463-2.323 0.695-3.475l-2.921-4.381c-0.67-1.005-1.962-1.389-3.072-0.913l-1.318 0.565c-1.001 0.429-1.817 1.199-2.304 2.173-0.407 0.814-0.722 1.671-0.765 2.579-0.135 2.864 0.493 9.92 8.353 17.779s14.915 8.487 17.779 8.353c0.909-0.043 1.766-0.358 2.579-0.765 0.974-0.487 1.744-1.304 2.173-2.304l0.565-1.318c0.476-1.11 0.092-2.402-0.913-3.072l-4.381-2.921c-1.151-0.768-2.707-0.457-3.475 0.695z"></path>
</svg>
