<!-- Generated by IcoMoon.io -->
<svg version="1.1" xmlns="http://www.w3.org/2000/svg" width="32" height="32" viewBox="0 0 32 32">
<title>share</title>
<path d="M25.6 22.4c-1.261 0-2.4 0.496-3.254 1.291l-11.29-6.571c0.080-0.368 0.144-0.736 0.144-1.12s-0.064-0.752-0.144-1.12l11.28-6.576c0.864 0.8 2 1.296 3.264 1.296 2.656 0 4.8-2.144 4.8-4.8s-2.144-4.8-4.8-4.8c-2.656 0-4.8 2.144-4.8 4.8 0 0.384 0.064 0.752 0.144 1.12l-11.28 6.576c-0.864-0.8-2-1.296-3.264-1.296-2.656 0-4.8 2.144-4.8 4.8s2.144 4.8 4.8 4.8c1.264 0 2.4-0.496 3.264-1.296l11.277 6.589c-0.090 0.362-0.137 0.734-0.141 1.107 0 0.949 0.281 1.877 0.809 2.667s1.277 1.405 2.154 1.768c0.877 0.363 1.842 0.458 2.773 0.273s1.786-0.642 2.458-1.314c0.671-0.671 1.128-1.527 1.314-2.458s0.090-1.896-0.273-2.773c-0.363-0.877-0.978-1.627-1.768-2.154s-1.717-0.809-2.667-0.809z"></path>
</svg>
